# xmcd
#
# Track frame offsets:
#	150
#	24355
#	41093
#	56160
#	73687
#	93269
#	106982
#	116944
#	131995
#	143730
#	159677
#
# Disc length: 2423 seconds
#
# Revision: 1
# Processed by: cddbd v1.5.2PL0 Copyright (c) Steve Scherf et al.
# Submitted via: audiograbber 1.83.01
#
DISCID=a109750b
DTITLE=שליחי הבלוז - חדר 26
DYEAR=2017
DGENRE=
TTITLE0=שתיים בלילה
TTITLE1=חדר 26
TTITLE2=כל מה שיש
TTITLE3=בדרך
TTITLE4=איש החלומות
TTITLE5=טוב לי עם עצמי
TTITLE6=סוף שנות השישים
TTITLE7=הלילה שלי
TTITLE8=לפני הנסיגה
TTITLE9=הגיבור
TTITLE10=זמן
EXTD=
EXTT0=
EXTT1=
EXTT2=
EXTT3=
EXTT4=
EXTT5=
EXTT6=
EXTT7=
EXTT8=
EXTT9=
EXTT10=
PLAYORDER=
